# xmcd CD database file
#
# Track frame offsets:
#	150
#	21985
#	51107
#	73297
#	105240
#	132737
#	150762
#	186627
#	212220
#	250505
#
# Disc length: 3651 seconds
#
# Revision: 1
# Processed by: cddbd v1.5.2PL0 Copyright (c) Steve Scherf et al.
# Submitted via: CDex 1.70beta2
#
DISCID=8d0e410a
DTITLE=Ravi Raj Nasery - Voice Of The Earth - 1
DYEAR=1900
DGENRE=New Age
TTITLE0=Gananatha Gowrisutha Gananatha
TTITLE1=Ghana Ghana Lella Om Shivaya
TTITLE2=Sai Hare Sai Hare Sai Hare Gopala
TTITLE3=Vittala Narayana
TTITLE4=Jaya Mana Mohana Krishna
TTITLE5=Kailasa Vasa Sambhavi Sankara
TTITLE6=Thume Namaskar Sai Baba
TTITLE7=Mangala Kara Hey
TTITLE8=Jhoolere Jhule Jhule
TTITLE9=Ambe Gowri Maa
EXTD=
EXTT0=
EXTT1=
EXTT2=
EXTT3=
EXTT4=
EXTT5=
EXTT6=
EXTT7=
EXTT8=
EXTT9=
PLAYORDER=
